<svg width="308" height="215" viewBox="0 0 308 215" fill="none" xmlns="http://www.w3.org/2000/svg">
<g id="Cassette Tape" filter="url(#filter0_d_654_500)">
<g id="Cassette Case">
<mask id="path-1-inside-1_654_500" fill="white">
<rect x="10" y="6" width="288" height="195" rx="11"/>
</mask>
<rect x="10" y="6" width="288" height="195" rx="11" fill="#CF5858" stroke="#215A84" stroke-width="86" mask="url(#path-1-inside-1_654_500)"/>
</g>
<g id="Cassette Tape_2">
<mask id="path-2-inside-2_654_500" fill="white">
<rect x="10" y="13" width="288" height="180" rx="11"/>
</mask>
<rect x="10" y="13" width="288" height="180" rx="11" fill="#071D54" stroke="#071D54" stroke-width="86" mask="url(#path-2-inside-2_654_500)"/>
</g>
<g id="Screws">
<g id="Screw">
<circle id="Ellipse 1" cx="20" cy="22" r="4.5" fill="#2300FB" stroke="#131178"/>
<g id="cross">
<rect id="Rectangle 10" x="18.1818" y="21.6364" width="3.63636" height="0.727273" fill="#071D54"/>
<rect id="Rectangle 11" x="19.6364" y="23.8182" width="3.63636" height="0.727273" transform="rotate(-90 19.6364 23.8182)" fill="#071D54"/>
</g>
<g id="Screw_2">
<circle id="Ellipse 1_2" cx="20" cy="22" r="4.5" fill="white" fill-opacity="0.76" stroke="#071D54"/>
<g id="cross_2">
<rect id="Rectangle 10_2" x="18.1818" y="21.6364" width="3.63636" height="0.727273" fill="#071D54"/>
<rect id="Rectangle 11_2" x="19.6364" y="23.8182" width="3.63636" height="0.727273" transform="rotate(-90 19.6364 23.8182)" fill="#071D54"/>
</g>
</g>
</g>
<g id="Screw_3">
<circle id="Ellipse 1_3" cx="17" cy="190" r="4.5" fill="#2300FB" stroke="#131178"/>
<g id="cross_3">
<rect id="Rectangle 10_3" x="15.1818" y="189.636" width="3.63636" height="0.727273" fill="#071D54"/>
<rect id="Rectangle 11_3" x="16.6364" y="191.818" width="3.63636" height="0.727273" transform="rotate(-90 16.6364 191.818)" fill="#071D54"/>
</g>
<g id="Screw_4">
<circle id="Ellipse 1_4" cx="17" cy="190" r="4.5" fill="white" fill-opacity="0.76" stroke="#071D54"/>
<g id="cross_4">
<rect id="Rectangle 10_4" x="15.1818" y="189.636" width="3.63636" height="0.727273" fill="#071D54"/>
<rect id="Rectangle 11_4" x="16.6364" y="191.818" width="3.63636" height="0.727273" transform="rotate(-90 16.6364 191.818)" fill="#071D54"/>
</g>
</g>
</g>
<g id="Screw_5">
<circle id="Ellipse 1_5" cx="287" cy="190" r="4.5" fill="#2300FB" stroke="#131178"/>
<g id="cross_5">
<rect id="Rectangle 10_5" x="285.182" y="189.636" width="3.63636" height="0.727273" fill="#071D54"/>
<rect id="Rectangle 11_5" x="286.636" y="191.818" width="3.63636" height="0.727273" transform="rotate(-90 286.636 191.818)" fill="#071D54"/>
</g>
<g id="Screw_6">
<circle id="Ellipse 1_6" cx="287" cy="190" r="4.5" fill="white" fill-opacity="0.76" stroke="#071D54"/>
<g id="cross_6">
<rect id="Rectangle 10_6" x="285.182" y="189.636" width="3.63636" height="0.727273" fill="#071D54"/>
<rect id="Rectangle 11_6" x="286.636" y="191.818" width="3.63636" height="0.727273" transform="rotate(-90 286.636 191.818)" fill="#071D54"/>
</g>
</g>
</g>
<g id="Screw_7">
<circle id="Ellipse 1_7" cx="287" cy="22" r="4.5" fill="white" fill-opacity="0.76" stroke="#071D54"/>
<g id="cross_7">
<rect id="Rectangle 10_7" x="285.182" y="21.6364" width="3.63636" height="0.727273" fill="#071D54"/>
<rect id="Rectangle 11_7" x="286.636" y="23.8182" width="3.63636" height="0.727273" transform="rotate(-90 286.636 23.8182)" fill="#071D54"/>
</g>
</g>
</g>
<g id="Labels" filter="url(#filter1_d_654_500)">
<path d="M24 43C24 37.4771 28.4772 33 34 33H273C278.523 33 283 37.4772 283 43V143H24V43Z" fill="#9DF3FF"/>
</g>
<rect id="tension on spool" x="66.0001" y="58.9995" width="177" height="56" rx="28" stroke="#071D54" stroke-width="2"/>
<g id="Spool 1">
<path d="M122.96 88.5175C122.122 104.512 108.476 116.798 92.482 115.96C76.4877 115.122 64.2013 101.476 65.0395 85.482C65.8778 69.4877 79.5232 57.2012 95.5175 58.0395C111.512 58.8777 123.798 72.5232 122.96 88.5175Z" fill="#071D54"/>
<path d="M109.873 74.9057C116.929 83.6186 115.585 96.4014 106.872 103.457C98.1595 110.512 85.3767 109.169 78.3212 100.456C71.2656 91.7432 72.6091 78.9604 81.322 71.9048C90.0349 64.8493 102.818 66.1928 109.873 74.9057Z" fill="white"/>
<path d="M102.19 101.329L106.235 98.0538L112.787 106.144L108.741 109.42L102.19 101.329Z" fill="#071D54"/>
<path d="M90.1463 103.362L95.3229 103.906L94.2347 114.259L89.0581 113.715L90.1463 103.362Z" fill="#071D54"/>
<path d="M79.0143 83.4597L77.5796 88.4632L67.5726 85.5938L69.0074 80.5903L79.0143 83.4597Z" fill="#071D54"/>
<path d="M98.79 71.2874L93.5976 71.6504L92.8714 61.2656L98.0638 60.9025L98.79 71.2874Z" fill="#071D54"/>
<path d="M110.056 91.9751L110.6 86.7985L120.953 87.8867L120.409 93.0633L110.056 91.9751Z" fill="#071D54"/>
<path d="M76.388 69.4665L80.4331 66.1908L86.9845 74.2811L82.9394 77.5568L76.388 69.4665Z" fill="#071D54"/>
<path d="M75.6344 105.083L72.3587 101.038L80.449 94.4867L83.7246 98.5318L75.6344 105.083Z" fill="#071D54"/>
<path d="M107.497 79.2811L104.222 75.236L112.312 68.6846L115.588 72.7297L107.497 79.2811Z" fill="#071D54"/>
</g>
<g id="Spool 2">
<path d="M241.733 78.5213C246.416 93.8377 237.795 110.05 222.479 114.733C207.162 119.416 190.95 110.795 186.267 95.4788C181.584 80.1624 190.205 63.9499 205.521 59.2672C220.838 54.5845 237.05 63.2049 241.733 78.5213Z" fill="#071D54"/>
<path d="M224.78 70.2063C234.39 75.9806 237.499 88.4521 231.725 98.0621C225.951 107.672 213.479 110.782 203.869 105.007C194.259 99.233 191.15 86.7616 196.924 77.1515C202.698 67.5415 215.17 64.432 224.78 70.2063Z" fill="white"/>
<path d="M226.597 97.6644L229.278 93.2027L238.202 98.5644L235.521 103.026L226.597 97.6644Z" fill="#071D54"/>
<path d="M215.975 103.693L221.026 102.434L223.544 112.535L218.493 113.794L215.975 103.693Z" fill="#071D54"/>
<path d="M198.708 88.7989L199.071 93.9913L188.686 94.7175L188.323 89.525L198.708 88.7989Z" fill="#071D54"/>
<path d="M213.127 70.5969L208.372 72.714L204.138 63.2038L208.893 61.0867L213.127 70.5969Z" fill="#071D54"/>
<path d="M230.79 86.1838L229.531 81.1333L239.632 78.6148L240.891 83.6653L230.79 86.1838Z" fill="#071D54"/>
<path d="M191.454 76.5478L194.134 72.0862L203.058 77.4479L200.377 81.9095L191.454 76.5478Z" fill="#071D54"/>
<path d="M202.927 110.274L198.465 107.593L203.827 98.6702L208.289 101.351L202.927 110.274Z" fill="#071D54"/>
<path d="M224.044 75.1305L219.582 72.4497L224.944 63.5263L229.405 66.2072L224.044 75.1305Z" fill="#071D54"/>
</g>
<g id="Bottom">
<g id="Bottom Trapazoid" style="mix-blend-mode:soft-light">
<path d="M84.3917 143H224.111L244 193H65L84.3917 143Z" fill="#071D54"/>
<path d="M84.3917 143H224.111L244 193H65L84.3917 143Z" stroke="#071D54"/>
</g>
<g id="Screw_8">
<circle id="Ellipse 1_8" cx="155.5" cy="166.5" r="4" fill="#3F43A6" stroke="#21328D"/>
<g id="cross_8">
<rect id="Rectangle 10_8" x="153.909" y="166.182" width="3.18182" height="0.636364" fill="#071D54"/>
<rect id="Rectangle 11_8" x="155.182" y="168.091" width="3.18182" height="0.636364" transform="rotate(-90 155.182 168.091)" fill="#071D54"/>
</g>
<g id="Screw_9">
<circle id="Ellipse 1_9" cx="155" cy="167" r="4.5" fill="white" fill-opacity="0.76" stroke="#110F7B"/>
<g id="cross_9">
<rect id="Rectangle 10_9" x="153.182" y="166.636" width="3.63636" height="0.727273" fill="#071D54"/>
<rect id="Rectangle 11_9" x="154.636" y="168.818" width="3.63636" height="0.727273" transform="rotate(-90 154.636 168.818)" fill="#071D54"/>
</g>
</g>
</g>
<g id="Ellipse 2">
<circle cx="110.5" cy="176.5" r="5.5" fill="#D9D9D9"/>
<circle cx="110.5" cy="176.5" r="5" stroke="#00C2FF" stroke-opacity="0.5"/>
</g>
<g id="Ellipse 3">
<circle cx="200.5" cy="176.5" r="5.5" fill="#D9D9D9"/>
<circle cx="200.5" cy="176.5" r="5" stroke="#00C2FF" stroke-opacity="0.5"/>
</g>
<g id="Ellipse 2_2">
<circle cx="91.5" cy="185.5" r="5.5" fill="#D9D9D9"/>
<circle cx="91.5" cy="185.5" r="5" stroke="#00C2FF" stroke-opacity="0.5"/>
</g>
<g id="Ellipse 3_2">
<circle cx="221.5" cy="185.5" r="5.5" fill="#D9D9D9"/>
<circle cx="221.5" cy="185.5" r="5" stroke="#00C2FF" stroke-opacity="0.5"/>
</g>
</g>
<g id="Sticker">
<rect id="Rectangle 12" x="109" y="31" width="90" height="19" rx="9" fill="#B5A782"/>
<path id="MY MIX" d="M135.228 42.552L136.332 36.6H139.452C139.516 36.944 139.548 37.188 139.548 37.332C139.164 37.468 138.832 37.572 138.552 37.644L139.404 43.848L140.232 43.956C140.232 44.284 140.14 44.632 139.956 45H137.04L136.932 44.34C137.38 44.156 137.716 44.04 137.94 43.992L137.016 39.096L135.792 44.412H134.568L132.672 38.544L131.652 43.848L132.48 43.956C132.48 44.284 132.388 44.632 132.204 45H129.288L129.18 44.34C129.628 44.156 129.964 44.04 130.188 43.992L131.04 37.644L130.044 37.332L130.14 36.6H133.5L135.108 42.552H135.228ZM145.556 41.856L145.544 43.848L146.372 43.956C146.372 44.284 146.28 44.632 146.096 45H143.18L143.072 44.34C143.624 44.124 143.96 44.008 144.08 43.992C144.08 43.52 144.072 42.812 144.056 41.868L141.788 37.656L140.732 37.332L140.828 36.6H143.948C144.092 36.864 144.164 37.18 144.164 37.548C143.98 37.58 143.744 37.616 143.456 37.656L144.74 40.548H144.848L146.216 37.644C145.944 37.588 145.612 37.484 145.22 37.332L145.304 36.6H148.436C148.572 36.8 148.644 37.116 148.652 37.548C148.34 37.612 148.028 37.656 147.716 37.68L145.556 41.856ZM158.138 42.552L159.242 36.6H162.362C162.426 36.944 162.458 37.188 162.458 37.332C162.074 37.468 161.742 37.572 161.462 37.644L162.314 43.848L163.142 43.956C163.142 44.284 163.05 44.632 162.866 45H159.95L159.842 44.34C160.29 44.156 160.626 44.04 160.85 43.992L159.926 39.096L158.702 44.412H157.478L155.582 38.544L154.562 43.848L155.39 43.956C155.39 44.284 155.298 44.632 155.114 45H152.198L152.09 44.34C152.538 44.156 152.874 44.04 153.098 43.992L153.95 37.644L152.954 37.332L153.05 36.6H156.41L158.018 42.552H158.138ZM167.446 36.6C167.438 36.6 167.438 36.608 167.446 36.624C167.462 36.64 167.478 36.676 167.494 36.732C167.518 36.78 167.542 36.84 167.566 36.912C167.614 37.04 167.646 37.252 167.662 37.548C167.254 37.612 166.986 37.652 166.858 37.668L166.798 43.848L167.626 43.956C167.626 44.284 167.534 44.632 167.35 45H164.434L164.326 44.34C164.774 44.156 165.11 44.04 165.334 43.992C165.326 43.52 165.314 42.856 165.298 42C165.274 40.08 165.25 38.628 165.226 37.644L164.23 37.332L164.326 36.6H167.446ZM173.445 37.668C173.117 37.628 172.865 37.588 172.689 37.548C172.689 37.308 172.761 36.992 172.905 36.6H176.025C176.073 36.888 176.105 37.132 176.121 37.332C175.697 37.492 175.365 37.596 175.125 37.644L172.965 40.68L175.245 43.836L176.313 43.944C176.313 44.28 176.221 44.632 176.037 45H173.109L173.001 44.34C173.153 44.284 173.377 44.192 173.673 44.064L172.053 41.844L170.721 43.848L171.549 43.956C171.549 44.292 171.453 44.64 171.261 45H168.357L168.249 44.34C168.593 44.18 168.929 44.064 169.257 43.992L171.225 40.68L169.041 37.644L168.309 37.548C168.341 37.116 168.413 36.8 168.525 36.6H171.765C171.829 36.944 171.861 37.188 171.861 37.332C171.405 37.5 171.073 37.604 170.865 37.644C170.993 37.836 171.201 38.136 171.489 38.544C171.777 38.944 172.013 39.284 172.197 39.564L173.445 37.668Z" fill="white"/>
</g>
</g>
<defs>
<filter id="filter0_d_654_500" x="0.9" y="0.9" width="306.2" height="213.2" filterUnits="userSpaceOnUse" color-interpolation-filters="sRGB">
<feFlood flood-opacity="0" result="BackgroundImageFix"/>
<feColorMatrix in="SourceAlpha" type="matrix" values="0 0 0 0 0 0 0 0 0 0 0 0 0 0 0 0 0 0 127 0" result="hardAlpha"/>
<feOffset dy="4"/>
<feGaussianBlur stdDeviation="4.55"/>
<feComposite in2="hardAlpha" operator="out"/>
<feColorMatrix type="matrix" values="0 0 0 0 0 0 0 0 0 0 0 0 0 0 0 0 0 0 0.46 0"/>
<feBlend mode="normal" in2="BackgroundImageFix" result="effect1_dropShadow_654_500"/>
<feBlend mode="normal" in="SourceGraphic" in2="effect1_dropShadow_654_500" result="shape"/>
</filter>
<filter id="filter1_d_654_500" x="20" y="33" width="267" height="118" filterUnits="userSpaceOnUse" color-interpolation-filters="sRGB">
<feFlood flood-opacity="0" result="BackgroundImageFix"/>
<feColorMatrix in="SourceAlpha" type="matrix" values="0 0 0 0 0 0 0 0 0 0 0 0 0 0 0 0 0 0 127 0" result="hardAlpha"/>
<feOffset dy="4"/>
<feGaussianBlur stdDeviation="2"/>
<feComposite in2="hardAlpha" operator="out"/>
<feColorMatrix type="matrix" values="0 0 0 0 0 0 0 0 0 0 0 0 0 0 0 0 0 0 0.25 0"/>
<feBlend mode="normal" in2="BackgroundImageFix" result="effect1_dropShadow_654_500"/>
<feBlend mode="normal" in="SourceGraphic" in2="effect1_dropShadow_654_500" result="shape"/>
</filter>
</defs>
</svg>
