<svg width="58" height="58" viewBox="0 0 58 58" fill="none" xmlns="http://www.w3.org/2000/svg">
<path d="M56.7328 20.5213C61.4155 35.8377 52.7952 52.0502 37.4788 56.7329C22.1624 61.4156 5.94986 52.7953 1.26716 37.4788C-3.41554 22.1624 5.2048 5.94992 20.5212 1.26722C35.8376 -3.41548 52.0501 5.20486 56.7328 20.5213Z" fill="#071D54"/>
<path d="M39.7798 12.2063C49.3898 17.9806 52.4993 30.4521 46.725 40.0621C40.9507 49.6721 28.4793 52.7816 18.8692 47.0073C9.25922 41.233 6.14974 28.7616 11.924 19.1515C17.6983 9.54153 30.1698 6.43205 39.7798 12.2063Z" fill="white"/>
<path d="M41.5974 39.6644L44.2783 35.2027L53.2016 40.5644L50.5208 45.0261L41.5974 39.6644Z" fill="#071D54"/>
<path d="M30.975 45.6934L36.0255 44.4342L38.544 54.5352L33.4935 55.7944L30.975 45.6934Z" fill="#071D54"/>
<path d="M13.7075 30.7989L14.0706 35.9913L3.68574 36.7175L3.32265 31.525L13.7075 30.7989Z" fill="#071D54"/>
<path d="M28.1274 12.5969L23.3723 14.714L19.1381 5.20379L23.8932 3.08667L28.1274 12.5969Z" fill="#071D54"/>
<path d="M45.7898 28.1838L44.5305 23.1333L54.6315 20.6148L55.8908 25.6653L45.7898 28.1838Z" fill="#071D54"/>
<path d="M6.45361 18.5478L9.13445 14.0862L18.0578 19.4479L15.3769 23.9095L6.45361 18.5478Z" fill="#071D54"/>
<path d="M17.9271 52.2743L13.4654 49.5935L18.8271 40.6702L23.2887 43.351L17.9271 52.2743Z" fill="#071D54"/>
<path d="M39.0436 17.1305L34.5819 14.4497L39.9436 5.52634L44.4053 8.20718L39.0436 17.1305Z" fill="#071D54"/>
</svg>
