<svg width="120" height="100" viewBox="0 0 120 100" fill="none" xmlns="http://www.w3.org/2000/svg">
<g id="triangles">
<g id="light">
<path id="light 1" opacity="0.7" d="M34.6842 48.3659C35.8134 49.1627 35.8134 50.8373 34.6842 51.6341L13.1531 66.8276C11.8283 67.7624 10 66.8149 10 65.1934L10 34.8066C10 33.1851 11.8283 32.2376 13.1531 33.1724L34.6842 48.3659Z" fill="#34487C" fill-opacity="0.95"/>
</g>
<g id="dark">
<path id="dark 2" opacity="0.7" d="M54.6842 48.3659C55.8134 49.1627 55.8134 50.8373 54.6842 51.6341L33.1531 66.8276C31.8283 67.7624 30 66.8149 30 65.1934L30 34.8066C30 33.1851 31.8283 32.2376 33.1531 33.1724L54.6842 48.3659Z" fill="#080759"/>
<path id="dark 1" opacity="0.7" d="M91.6842 48.3659C92.8134 49.1627 92.8134 50.8373 91.6842 51.6341L70.1531 66.8276C68.8283 67.7624 67 66.8149 67 65.1934L67 34.8066C67 33.1851 68.8283 32.2376 70.1531 33.1724L91.6842 48.3659Z" fill="#080759"/>
</g>
</g>
</svg>
